# xmcd
#
# Track frame offsets:
#	150
#	18621
#	33816
#	50320
#	61475
#	79123
#	93493
#	112363
#	125634
#	136260
#	159115
#
# Disc length: 2323 seconds
#
# Revision: 20
# Processed by: cddbd v1.5.2PL0 Copyright (c) Steve Scherf et al.
# Submitted via: Jack! The Knife 20 Magnifico
#
DISCID=8e09110b
DTITLE=Police - Zenyatta Mondatta
DYEAR=1980
DGENRE=Rock
TTITLE0=Don't Stand So Close To Me
TTITLE1=Driven To Tears
TTITLE2=When The World Is Running Down, You Make The Best Of What's Still Around
TTITLE3=Canary In A Coalmine
TTITLE4=Voices Inside My Head
TTITLE5=Bombs Away
TTITLE6=De Do Do Do, De Da Da Da
TTITLE7=Behind My Camel
TTITLE8=Man In A Suitcase
TTITLE9=Shadows In The Rain
TTITLE10=The Other Way Of Stopping
EXTD=Nigel Gray and The Police
EXTT0=Sting
EXTT1=Sting
EXTT2=Sting
EXTT3=Sting
EXTT4=Sting
EXTT5=Stewart Copeland
EXTT6=Sting
EXTT7=Andy Summers
EXTT8=Sting
EXTT9=Sting
EXTT10=Stewart Copeland
PLAYORDER=
